<svg xmlns="http://www.w3.org/2000/svg" viewBox="0 0 64 64"><linearGradient id="LyRnpK~TWeMn~6rLY~ahva" x1="50" x2="50" y1="7" y2="16" gradientTransform="matrix(-.5 0 0 1 73.5 0)" gradientUnits="userSpaceOnUse" spreadMethod="reflect"><stop offset="0" stop-color="#6dc7ff"></stop><stop offset="1" stop-color="#e6abff"></stop></linearGradient><path fill="url(#LyRnpK~TWeMn~6rLY~ahva)" d="M44,7v8.1c0,0.497,0.403,0.9,0.9,0.9H53L44,7z"></path><linearGradient id="LyRnpK~TWeMn~6rLY~ahvb" x1="32" x2="32" y1="6" y2="58" gradientUnits="userSpaceOnUse" spreadMethod="reflect"><stop offset="0" stop-color="#1a6dff"></stop><stop offset="1" stop-color="#c822ff"></stop></linearGradient><path fill="url(#LyRnpK~TWeMn~6rLY~ahvb)" d="M53.092,14.527L45.197,6.85C44.633,6.302,43.891,6,43.105,6H23c-1.654,0-3,1.346-3,3v5h-7 c-1.654,0-3,1.346-3,3v38c0,1.654,1.346,3,3,3h28c1.654,0,3-1.346,3-3v-5h7c1.654,0,3-1.346,3-3V16.678 C54,15.871,53.669,15.088,53.092,14.527z M45,9.448L50.709,15H46c-0.551,0-1-0.448-1-1V9.448z M51,48h-7h-2H23c-0.551,0-1-0.448-1-1 V24h-2v23c0,1.654,1.346,3,3,3h19v5c0,0.552-0.449,1-1,1H13c-0.551,0-1-0.448-1-1V17c0-0.552,0.449-1,1-1h7h1.917H22V9 c0-0.552,0.449-1,1-1h20v6c0,1.654,1.346,3,3,3h6v30C52,47.552,51.551,48,51,48z"></path></svg>